<?xml version="1.0" encoding="iso-8859-1"?>
<!-- Uploaded to: SVG Repo, www.svgrepo.com, Generator: SVG Repo Mixer Tools -->
<svg height="800px" width="800px" version="1.1" id="Layer_1" xmlns="http://www.w3.org/2000/svg" xmlns:xlink="http://www.w3.org/1999/xlink" 
	 viewBox="0 0 511.982 511.982" xml:space="preserve">
<path style="fill:#EC87C0;" d="M362.644,21.339c-41.78,0-79.561,17.171-106.653,44.834c-27.101-27.663-64.873-44.834-106.66-44.834
	C66.857,21.339,0,88.196,0,170.662c0,170.674,255.991,319.981,255.991,319.981s255.991-149.308,255.991-319.981
	C511.982,88.196,445.125,21.339,362.644,21.339z"/>
<g style="opacity:0.2;">
	<path style="fill:#FFFFFF;" d="M362.644,21.339c-7.234,0-14.344,0.523-21.312,1.523c72.357,10.351,127.996,72.575,127.996,147.8
		c0,140.378-173.197,266.312-234.672,306.591c13.265,8.703,21.335,13.39,21.335,13.39s255.991-149.308,255.991-319.981
		C511.982,88.196,445.125,21.339,362.644,21.339z"/>
</g>
</svg>